<svg width="940" height="685" viewBox="0 0 940 685" fill="none" xmlns="http://www.w3.org/2000/svg">
<path d="M92.1999 42.7999C89.9999 43.0999 89.8999 43.4999 90.1999 50.5999L90.4999 57.9999L494 58.2999L897.5 58.4999L897.8 72.4999C898 82.0999 898.4 86.6999 899.3 87.1999C900.7 88.0999 909.5 88.1999 912.8 87.3999C915 86.7999 915 86.6999 915 65.3999C915 49.4999 914.7 43.8999 913.8 43.2999C912.6 42.5999 97.3999 42.0999 92.1999 42.7999Z" fill="#0F1E2E"/>
<path d="M51.5001 89.2001C51.2001 89.9001 51.1001 186.8 51.2001 304.5L51.5001 518.5L59.3001 518.8L67.0001 519.1L66.8001 303.8L66.5001 88.5001L59.2001 88.2001C54.0001 88.0001 51.8001 88.3001 51.5001 89.2001Z" fill="#0F1E2E"/>
<path d="M153.5 124.1C147 129.9 139.3 136.9 99.8 172.9L85 186.3V273.1C85 320.8 85.3 360.5 85.6 361.4C85.9 362.2 98.4 373.8 113.3 387.2C128.2 400.6 145 415.7 150.7 420.7C158.4 427.6 161.7 430 163.8 430C165.3 430 209.8 430.1 262.8 430.2C315.8 430.4 359.6 430.7 360.1 431C360.7 431.4 360.9 450.7 360.8 480.3L360.5 529L229.5 529.1C157.5 529.2 97.5 529.4 96.3 529.7L94 530.2V576.1V622H96.3C118.7 622.5 400.5 621.8 401.4 621.3C403.9 619.8 475.5 554.9 477.1 552.7C478.5 550.7 478.6 542.8 478.2 476.2L477.8 401.9L472.2 396.6C465.4 390.3 436 363.5 416.7 346C409.1 339.1 401.4 332.7 399.7 331.7C396.7 330.1 391.8 330 314.9 330.6C248.9 331.1 233.1 331 232.5 330C231.6 328.6 231.2 226.5 232 225.6C232.3 225.3 284.1 225 347 224.9C410 224.9 462.5 224.4 463.7 223.9L466 223V171.6C466 131.5 465.7 119.9 464.8 119.3C464.1 118.9 395.3 118.4 312 118.2L160.5 118L153.5 124.1ZM455 136.5V143H393.7H332.4L328.5 139L324.6 135H313.8C301.5 135 300.6 135.7 306.5 140.9C309.4 143.4 310.9 144 314.7 144C318.5 144 320.1 144.6 323.6 147.5L327.8 151H391.4H455V168V185H437.6C423.5 185 420 184.7 419 183.5C415.9 179.8 406.8 177.8 400.5 179.6C398.3 180.2 393 187.8 393 190.4C393 191.9 387.9 192 336.8 192.2C270.2 192.5 270 192.5 268 190.1C267.2 189.1 263.3 185.3 259.3 181.7L252.1 175H238.1H224.1L222.5 172C221.6 170.3 220.5 169 220 169C219.5 169 218.4 168.2 217.5 167.3C216.2 166.1 214 165.6 209.4 165.6C203.4 165.6 202.8 165.8 200 169C198.4 170.8 197 173 197 173.7C197 174.7 194.7 175 187.4 175H177.9L171.9 180.7C168.7 183.8 166 186.8 166 187.4C166 188.4 185.7 207 190.4 210.3C191.6 211.2 192.1 212.3 191.7 213.4C191.1 214.8 188.8 215 172 215H153V197C153 175.5 152.7 174.9 144.7 182.8C139.8 187.5 139.2 187.8 133.2 188.2C127.1 188.6 126.8 188.8 121 194.5L115 200.4V258.7V316.9L111.5 320.7C108.2 324.3 108 324.9 108 331.2C108 337.2 108.3 338.1 110.3 339.1C111.5 339.7 113.5 341.2 114.8 342.3C116.5 343.9 118.4 344.4 122.4 344.4C127.4 344.4 128 344.1 131.9 340.1C135.8 336.1 136 335.5 136 329.9C136 324.2 135.8 323.7 132.3 320.5C130.2 318.6 127.5 317 126.3 317C124.4 317 124 316.4 123.9 313.7C123.9 312 123.8 286.7 123.8 257.7L123.6 204.9L127.6 201C130.7 198 132.4 197.1 135.5 196.9C144.5 196.4 144 195.9 144 205.9V214.9L139.8 215.2L135.5 215.5L135.2 246.9L135 278.2L139 282.2C142 285.3 143 287 143 289.5C143 291.3 143.6 293.3 144.4 293.9C145.1 294.5 146 296.4 146.3 298C146.8 300.4 147.6 301 150.5 301.6L154 302.2V330.6V358.9L168.8 372.3C189.5 391.2 198.7 398.9 201.4 399.6C202.7 399.9 212.4 400 222.9 399.8L241.9 399.5L247.5 394L253.1 388.5H269.8H286.5L292.6 393.2L298.6 398H335.2C358.5 398 372.9 398.4 374.7 399.1C376.2 399.6 380.3 402.9 383.8 406.3L390 412.4V479.1V545.8L383.8 551.4L377.5 557H357.9H338.3L333.4 562.2L328.5 567.5H321.3C315.9 567.4 313.7 567 312.8 565.9C309.3 561.6 306.9 561 293.9 561H281.2L279.1 557.5C278 555.6 276.4 554 275.7 554C274.9 554 273.7 553.3 273 552.5C272.2 551.5 269.9 551 266.4 551C261.8 551 260.5 551.5 257.3 554.2C251.9 558.9 251.9 558.9 252.3 565.4C252.6 571 252.9 571.6 257.3 575.6C261 578.9 262 580.5 262 582.9C262 585 262.6 586.3 263.8 586.7C264.7 587 267.2 588.9 269.3 590.9L273.1 594.5L330.1 594.3L387.1 594.1L390.3 591.8C392.1 590.6 396 587.3 399.1 584.5C402.2 581.8 407.3 577.2 410.6 574.5C413.8 571.7 418.4 567.8 420.7 565.6L425 561.7V552.9V544L429.5 539.7C433.8 535.5 434 535.1 434 529.6C434 525.6 433.6 523.8 432.5 523.4C431.7 523.1 430.8 522 430.5 521C430.2 519.9 428.3 518.5 426.4 517.8L423 516.6V459V401.5L407.8 387.4C399.4 379.7 390.3 371.4 387.7 369.2L382.9 365H373.1C360.6 365 354 364.1 354 362.5C354 361.7 352.1 359.8 349.8 358.1C346.3 355.5 344.7 355 340.2 355C335.1 355 334.7 355.2 330.1 360L325.3 365H269.2H213.1L211.9 362.7C210.1 359.4 206.9 356.1 203.8 354.4L201 352.9V305.5C201 273.5 201.3 258 202 258C202.6 258 204.6 256.4 206.5 254.5C209.7 251.3 210 250.6 210 245C210 240.5 209.6 238.8 208.5 238.4C207.7 238 207 237.2 207 236.4C207 234.3 199.6 231 194.9 231C191.4 231 190.2 231.6 187.4 234.5C185.6 236.4 183.7 238 183.1 238C181.6 238 180.7 242.5 181.3 246.9C181.8 250.9 187.7 258 190.5 258C191.8 258 192 264.5 192 306C192 352.9 192 354 190 355C188 356.1 188 355.8 188 333.3V310.5L180 303.6C172.9 297.5 172 296.4 172 293.3C172 287.8 170 281.3 167.5 279C164.4 276.1 152.2 275.6 149.3 278.2C146.7 280.6 146.4 280.5 145.1 276.9C144.2 274.2 143.4 225 144.3 225C144.4 225 156.9 224.7 172 224.4C187.1 224.1 200 223.7 200.6 223.5C201.3 223.3 201.8 220.3 201.9 216.1L202.1 209.1L195.3 202.7C191.6 199.1 186.2 194.3 183.3 191.9C178.5 187.8 178.2 187.4 179.7 185.8C181 184.4 182.9 184 189.1 184C196.7 184 196.8 184 197.8 186.9C198.4 188.5 199.8 190.1 200.9 190.5C202.1 190.8 203 191.6 203 192.1C203 192.6 206 193 209.8 193C215.6 192.9 216.9 192.6 219.6 190.2C221.3 188.7 223 186.7 223.3 185.7C223.9 184.2 225.4 184 235.6 184H247.2L256.2 192.2L265.2 200.5L330.3 200.8L395.3 201L398.2 203.5C400.7 205.6 402.2 206 407.6 206C412.9 206 414.2 205.7 415.2 204C415.9 202.9 417 202 417.7 202C419.2 202 421 198.8 421 196.1C421 194.1 421.5 194 438 194H455.1L454.8 204.1L454.5 214.2L336.3 214.4C271.2 214.6 217.8 214.8 217.6 215.1C217.4 215.3 217 244.5 216.9 280L216.6 344.5L303.9 344.8C376.6 345 391.5 345.2 393.2 346.4C395.2 347.8 396.5 349 432.9 382.1C444.6 392.8 456.2 403.2 458.6 405.3L463 409.2V477V544.8L458.8 548.6C455.2 551.8 438.4 566.8 399.2 602.2L391.7 609H327.3C271 609 262.9 609.2 262.4 610.5C261.9 611.8 257.1 612 227.7 612H193.7L189.1 608.3C186.6 606.3 182.6 602.9 180.2 600.8L176 597L157.2 597.2L138.5 597.5V601.5V605.5L152 606C164.2 606.5 165.9 606.7 169.5 609L173.5 611.5L139.6 611.8C121 611.9 105.5 611.8 105.2 611.5C104.9 611.2 104.4 606 104.2 600L103.7 589H152H200.3L202.5 591.2C207.4 596.1 208.3 596.5 214.4 596.4C218.4 596.3 220.7 595.8 221.4 594.8C222 594 223.5 592.8 224.8 592.1C226 591.5 227 590.3 227 589.5C227 588.6 229 588 233.8 587.5C242.8 586.6 243.2 586.5 242.8 583.3C242.5 580.2 240.2 579.3 233.2 579.1C229.7 579 228.8 578.6 228 576.6C226.6 572.7 219.2 569 213.2 569C208.5 569 207.6 569.4 204 573C201.8 575.2 200 577.7 200 578.5C200 579.8 194.1 580 152.7 580H105.3L104.7 560.3C104.3 549.5 104.2 540.5 104.3 540.3C104.5 540.2 165.4 539.9 239.7 539.8C314 539.6 375.1 539.2 375.4 538.9C375.9 538.5 376.3 438.5 376 418.2C376 417.3 354.7 417 273 417H170L165.8 413.2C163.4 411.2 151.4 400.3 139.1 389C126.7 377.7 113.1 365.4 108.8 361.7L101 354.9V274V193.2L126.3 170.2C140.1 157.6 155.4 143.9 160.2 139.7L168.8 132H234.4C277.5 132 300 131.7 300 131C300 130.3 326.5 130 377.5 130H455V136.5ZM214.1 176.1C216.1 178.1 216 180.9 213.8 183.7C211.3 186.8 205 184 205 179.9C205 174.2 210.1 172.1 214.1 176.1ZM412 189.9C414.3 194.2 411.9 198 407 198C402.7 198 400.2 192.2 403.2 189.2C405.2 187.2 410.8 187.7 412 189.9ZM200.5 242C202.8 244.5 201.8 248.7 198.5 250.2C195 251.8 191 249 191 245C191 240.2 197.1 238.2 200.5 242ZM160.5 285.2C162.7 286.2 163.1 286.9 162.8 289.9C162.5 293.2 162.2 293.5 159.2 293.8C155 294.2 153 292.6 153 288.8C153 286.2 154 285.2 157.7 284.1C157.8 284 159.1 284.5 160.5 285.2ZM172.7 309L179.5 315.5L179.8 342.9L180.1 370.3L174.9 365.9C172 363.5 168.1 360.1 166.3 358.4L163 355.3V330.2C163 306.1 163.3 301.6 165 302.2C165.5 302.4 168.9 305.4 172.7 309ZM126 327C127.1 328.1 128 329.7 128 330.5C128 332.6 124.4 336 122.2 336C117.5 336 114.7 330.3 117.9 327.1C120.5 324.5 123.4 324.4 126 327ZM202.1 364.1C205.4 367.4 202.9 373 198.1 373C194.6 373 193 371.3 193 367.5C193 365.8 193.5 363.9 194.2 363.2C196 361.4 199.8 361.8 202.1 364.1ZM344.8 365.2C345.5 365.9 346 367.6 346 369C346 372.3 344.3 374 340.9 374C337.6 374 335 371.7 335 368.6C335 365.5 336.8 364 340.5 364C342.2 364 344.1 364.5 344.8 365.2ZM321.9 373.6C325.4 374 328 374.8 328 375.4C328 377.7 334 381.9 337.8 382.1C344.9 382.6 349 382 349 380.7C349 379.9 350.1 378.8 351.4 378C352.7 377.3 354 376 354.3 375C354.7 373.4 356.2 373.2 366.3 373.1C377.7 372.9 377.9 373 380.8 375.7C387.4 382.1 411.3 403.6 412.6 404.3C413.8 405 414 414.6 414 461.5C414 517 414 517.9 412 518.5C410.9 518.8 410 519.6 410 520.1C410 520.6 409 522 407.8 523.2C405.9 525.1 405.5 526.5 405.7 530.8C405.9 535.7 406.3 536.5 409.7 539.6C411.8 541.4 414.1 542.9 414.8 543C415.6 543 416 545.1 416 550.2V557.5L402.9 569C395.7 575.3 388.5 581.6 386.8 583L383.7 585.5H330.3H276.8L273.8 582.1L270.8 578.7L273.9 577.4C275.6 576.7 277.8 574.7 278.8 573L280.5 570H292C303.3 570.1 303.6 570.1 307 573C310.3 575.9 310.7 576 321.3 576H332.2L336.8 572.3C339.4 570.2 342.1 567.9 342.8 567.2C343.8 566.3 349.2 566 362.5 566H380.8L385.7 562.1C388.3 559.9 392.4 556.4 394.8 554.2L399 550.2L399.3 487.9C399.4 453.6 399.4 421.6 399.4 416.8L399.2 408.1L391 400.3C386.4 396 381.8 391.8 380.6 391C378.8 389.7 372.6 389.5 340.9 389.4L303.2 389.2L297.4 384.6L291.5 380H269.5H247.6L242.2 385.2L236.9 390.5H221.2C212.6 390.5 204.4 390.1 203 389.7C201.6 389.3 197.5 386.2 193.9 382.7C190.3 379.3 188.5 377.5 189.9 378.6C192.8 381 200.1 382.3 203.5 381C204.7 380.6 207 378.8 208.7 377.2C210.9 374.9 212.9 374 216.1 373.7C223.8 373.1 315.5 373 321.9 373.6ZM423.8 526.2C424.5 526.9 425 528.9 425 530.7C425 534.9 421.5 537 417.5 535.2C415.6 534.3 415 533.3 415 530.7C415 526.7 416.5 525 420 525C421.4 525 423.1 525.5 423.8 526.2ZM270.8 561.2C271.5 561.9 272 563.6 272 565C272 568.4 270.3 570 266.5 570C262.7 570 261 568.4 261 565C261 563.6 261.5 561.9 262.2 561.2C263.8 559.6 269.2 559.6 270.8 561.2ZM219.2 580.5C220.1 582.4 220 583.4 218.6 585.5C215.5 590.3 209 588.1 209 582.3C209 579.5 211 578 214.7 578C217.3 578 218.3 578.6 219.2 580.5Z" fill="#0F1E2E"/>
<path d="M170.2 158.8C165.1 163.6 160.9 167.9 161 168.3C161 169.5 165.2 172.9 166.7 173C167.4 173 171.4 169.9 175.7 166L183.5 159H208.9H234.3L239.4 162.9C242.6 165.4 245.8 167 248 167.2C250.7 167.4 251.6 168 251.8 169.8C252 171 253 172.5 254.1 173C255.1 173.6 256 174.7 256 175.4C256 177.4 258.3 178 266.3 178C273.4 178 273.5 177.9 276.8 174C282.2 167.5 282 161 276.3 154.5C274 151.9 272.9 151.5 267.1 151.2C261.4 150.9 259.9 151.1 256.8 153.1C254.8 154.4 252.9 156.3 252.7 157.2C251.9 160.1 249.2 159.3 243.3 154.5L237.8 150H208.7L179.5 150.1L170.2 158.8ZM268.8 160.6C274.2 164.3 269.5 171.9 263.5 169.2C259 167.1 260.6 159.2 265.5 159C266.1 159 267.6 159.7 268.8 160.6Z" fill="#0F1E2E"/>
<path d="M433.4 412.3C433.2 413 433.1 423.2 433.2 435L433.5 456.5L436.2 456.8L439 457.1L439.2 497.3C439.5 535.3 439.6 537.5 441.3 537.8C442.3 538 444.2 537.9 445.6 537.6L448 537V493.7C448 448.6 447.9 448 443.8 448C442.1 448 442 446.7 442 431.1C442 417 441.7 413.9 440.4 412.6C438.5 410.7 434.1 410.5 433.4 412.3Z" fill="#0F1E2E"/>
<path d="M655.8 125.9C650.7 130.3 638.7 140.6 629.1 148.8C609 166.1 610.7 165.4 588.3 164.4C573.9 163.8 569.7 164.5 569.2 167.8C568.9 169.8 568.3 170 561.9 170H555V176.3C555 179.9 555.5 183.1 556.2 183.8C556.9 184.5 560 185 563.2 185C570.9 185 570.9 187 563.2 193.5C551.2 203.7 531.5 220.6 528.1 223.7L524.5 226.9L529 231.4C531.4 233.9 534 236 534.7 236C535.4 236 540 232.5 544.8 228.2C549.7 224 560.5 214.7 568.8 207.6L584 194.7V186.3V178H600.4H616.9L623.2 172.8C626.7 169.9 634.9 162.8 641.5 157C648.1 151.2 657.4 143.2 662.2 139.2L670.9 132H694.9H719V144.4V156.8L712.9 162.3L706.9 167.8L694.7 168.1L682.5 168.5L663.5 184.9C653.1 193.9 638.4 206.6 631 213C623.6 219.5 600 239.7 578.5 258C557.1 276.2 537 293.3 534 296L528.5 300.8L532.8 304.9C535.2 307.1 537.8 309 538.6 309C539.4 309 552.8 298.1 568.3 284.7C583.8 271.4 598.4 258.9 600.7 257C602.9 255.1 620.5 240 639.6 223.5C658.7 207 677.4 190.9 681.2 187.7L688 182H699.4H710.8L716.5 177.2C728.6 167.3 732.5 163.6 733.2 161.6C734.4 157.6 734.1 120.5 732.8 119.2C731.9 118.3 722.9 118 698.4 118H665.1L655.8 125.9Z" fill="#0F1E2E"/>
<path d="M770.6 119.6C769.6 122.3 769.9 127.8 771.3 128.7C771.9 129.1 775.2 129.5 778.5 129.5H784.5V137.5V145.5L778 146C771.8 146.5 771.6 146.6 770.9 149.6C770.3 152.8 767.7 155.5 753.4 167.6C736.1 182.3 719.4 196.7 690.5 221.5C644.6 261 564.7 329.2 546.5 344.4C543.2 347.2 538.2 351.5 535.4 354C532.7 356.5 527.9 360.5 524.7 363C521.6 365.5 519.1 368 519 368.6C519 369.3 522.3 372.4 526.3 375.6C533.7 381.6 616.4 450.5 648.5 477.5C658.4 485.8 676.6 501.1 689 511.4C701.4 521.7 717.4 535 724.5 541C731.7 546.9 744.9 558 754 565.5C766.3 575.6 770.6 579.8 771 581.8C771.3 583.3 772.5 584.9 773.7 585.5C775.8 586.4 776 587.1 776.2 600.5L776.5 614.5L786.5 614.8C800.9 615.2 801.2 615.1 800.8 608.7L800.5 603.5L793.3 603.2L786 602.9V595V587.1L789.3 586.8C791.9 586.6 792.6 586 792.8 583.8C793 582 792.4 580.5 791 579.3C789.8 578.3 787.6 576.3 786 574.7C784.5 573.2 782.1 572 780.8 572C779.2 572 771.4 566 756.3 553.2C744.2 542.9 723.7 525.7 711 515C698.2 504.3 680.2 489.2 671.1 481.5C661.9 473.8 653 466.4 651.3 465C649.6 463.6 639.7 455.3 629.3 446.5C601.2 422.7 583.9 408.4 559 388C546.6 378 536.3 369.5 536 369.3C535.8 369.1 537.5 367.2 540 365.2C546.6 359.7 588.6 323.9 619.9 297C635 284.1 655.5 266.6 665.4 258.2C683.8 242.6 717.9 213.2 732.4 200.5C751.1 184 774.3 164.4 776.3 163.4C777.5 162.7 780.2 161.5 782.3 160.6C784.4 159.7 786 158.3 786 157.4C786 156.5 788 154 790.5 151.8L795.1 147.8L794.8 133.1L794.5 118.5L782.9 118.2C772.9 118 771.1 118.2 770.6 119.6Z" fill="#0F1E2E"/>
<path d="M834.7 118.7C833.8 119.5 833.8 123.7 834.6 126.7C835.1 128.7 836 128.9 841.7 129.2L848.2 129.5L842.1 134.5C838.8 137.2 829 145.8 820.4 153.5C811.7 161.2 801 170.6 796.5 174.5C792 178.3 780.3 188.5 770.4 197C760.6 205.5 739.9 223.3 724.5 236.5C709.1 249.7 688.4 267.5 678.6 276C668.7 284.5 657.7 294 654.1 297C650.5 300 641.8 307.4 634.9 313.5C628 319.5 616.3 329.7 609 336C601.6 342.3 593.3 349.5 590.5 352C587.7 354.5 582.4 358.9 578.7 361.9C575 364.9 572 367.9 572 368.6C572 369.3 574.1 371.7 576.8 373.9C579.4 376.1 587.6 383 595.1 389.2C611.9 403.1 659.3 443 693.1 471.5C708.1 484.2 750.9 520.1 803.9 564.4C818.4 576.6 834.7 590.1 840.1 594.5L849.9 602.5L843.2 602.8C839.4 603 836.2 603.6 835.8 604.3C834.8 605.8 834.8 611.2 835.8 612.6C836.2 613.3 844.6 613.9 859.8 614.3C881.4 614.9 883 614.8 883 613.2C883 610.8 858.9 590.1 774 519.4C757.2 505.5 737 488.5 728.9 481.8C720.9 475 696.5 454.4 674.5 436C652.6 417.6 628.3 397.1 620.5 390.5C612.7 383.9 603.8 376.5 600.7 374C597.6 371.5 595.1 369.2 595 368.8C595 368 612.7 352.6 662.5 309.8C722.6 258.3 767.7 219.5 778 210.5C783.2 206 797.6 193.6 810 183C845.4 152.7 881 120.8 881 119.4C881 118.3 876.7 118 858.2 118C845.6 118 835 118.3 834.7 118.7Z" fill="#0F1E2E"/>
<path d="M898.7 138.6C898.3 139 898 241.8 898 367.1V594.8L901.3 595.1C903 595.3 906.8 595.3 909.5 595L914.5 594.5L914.8 369.6C914.9 246 914.6 143.4 914.2 141.6C913.4 138.5 913.3 138.5 906.4 138.2C902.6 138.1 899.1 138.2 898.7 138.6Z" fill="#0F1E2E"/>
<path d="M530 438.6C527.8 440.6 526 442.8 526 443.5C526 444.2 529.2 447.4 533.2 450.6C537.1 453.9 551.2 465.7 564.4 476.9C577.7 488.1 596.4 503.9 606 512C615.6 520.1 636.6 537.8 652.5 551.4L681.5 576H702.1H722.8L723.4 579.1C724.2 583.1 724.2 596.3 723.4 598.4C722.9 599.8 719.5 600 695.8 600H668.8L663.6 595.8C660.8 593.4 649.7 584.1 639 574.9C628.3 565.8 618.5 557.8 617.3 557.2C616 556.4 610.1 556 602.1 556H589V549.6C589 538.5 589 538.5 574.8 526.5C567.7 520.4 557.2 511.6 551.7 506.8C546.1 502 540.8 498.1 540 498C539.1 498 536.5 500 534.1 502.4L529.8 506.7L535.2 511.3C538.1 513.9 547.9 522.3 557 530C576.3 546.5 577.3 548.3 567.5 548.8C564.3 549 561 549.6 560.3 550.2C558.7 551.5 558.6 561.6 560.1 562.6C560.7 562.9 564.1 563.5 567.6 563.8C573.1 564.2 573.9 564.5 574.2 566.4C574.5 568.3 575.3 568.6 583.5 569.1C588.5 569.5 596.8 569.8 602 569.9L611.5 570L616.7 574.3C619.6 576.6 631.2 586.5 642.4 596.2L662.9 614H700H737L736.8 588.7L736.5 563.5L717.5 563.9C686.8 564.4 691.2 566.1 664.4 543.4C651.8 532.7 630.9 515 618 504.2C605.1 493.4 582.8 474.6 568.5 462.5C535 434.2 536 435 534.9 435C534.4 435 532.2 436.6 530 438.6Z" fill="#0F1E2E"/>
<path d="M51.7 575.6C51.3 576 51 595.4 51 618.6C51 651.3 51.3 661.1 52.3 661.7C53.9 662.7 913.2 662.1 914.3 661.1C914.7 660.7 915 657.4 914.8 653.9L914.5 647.5L490.8 647.2L67 647L66.8 611.2L66.5 575.5L59.5 575.2C55.6 575.1 52.1 575.2 51.7 575.6Z" fill="#0F1E2E"/>
</svg>
